<svg width="22" height="24" viewBox="0 0 22 24" fill="none" xmlns="http://www.w3.org/2000/svg">
<path d="M0.842651 3.64941H20.8427" stroke="#A0A0A0" stroke-linecap="round" stroke-linejoin="round"/>
<path d="M7.6855 3.64933C7.6855 5.14837 6.46911 6.36433 4.96769 6.36433C3.46627 6.36433 2.24988 5.14837 2.24988 3.64933C2.24988 2.15028 3.46627 0.934326 4.96769 0.934326C6.46911 0.934326 7.6855 2.15028 7.6855 3.64933Z" fill="#C4C4C4" stroke="#A0A0A0"/>
<path d="M0.842651 11.9807H20.8427" stroke="#A0A0A0" stroke-linecap="round" stroke-linejoin="round"/>
<path d="M18.7943 11.9806C18.7943 13.4797 17.5779 14.6956 16.0765 14.6956C14.575 14.6956 13.3586 13.4797 13.3586 11.9806C13.3586 10.4816 14.575 9.26562 16.0765 9.26562C17.5779 9.26562 18.7943 10.4816 18.7943 11.9806Z" fill="#C4C4C4" stroke="#A0A0A0"/>
<path d="M0.842651 20.3115H20.8427" stroke="#A0A0A0" stroke-linecap="round" stroke-linejoin="round"/>
<path d="M7.6855 20.3117C7.6855 21.8107 6.46911 23.0267 4.96769 23.0267C3.46627 23.0267 2.24988 21.8107 2.24988 20.3117C2.24988 18.8126 3.46627 17.5967 4.96769 17.5967C6.46911 17.5967 7.6855 18.8126 7.6855 20.3117Z" fill="#C4C4C4" stroke="#A0A0A0"/>
</svg>
