<svg width="28" height="22" viewBox="0 0 28 22" fill="none" xmlns="http://www.w3.org/2000/svg">
<path d="M18.5303 1.56152H1.65759V15.2288H18.5303V1.56152Z" stroke="#A0A0A0" stroke-width="2" stroke-linecap="round" stroke-linejoin="round"/>
<path d="M18.5303 6.81812H23.0297L26.4042 9.9721V15.2287H18.5303V6.81812Z" stroke="#A0A0A0" stroke-width="2" stroke-linecap="round" stroke-linejoin="round"/>
<path d="M6.71935 20.4854C8.27244 20.4854 9.53147 19.3087 9.53147 17.8571C9.53147 16.4055 8.27244 15.2288 6.71935 15.2288C5.16626 15.2288 3.90723 16.4055 3.90723 17.8571C3.90723 19.3087 5.16626 20.4854 6.71935 20.4854Z" stroke="#A0A0A0" stroke-width="2" stroke-linecap="round" stroke-linejoin="round"/>
<path d="M21.3424 20.4854C22.8955 20.4854 24.1545 19.3087 24.1545 17.8571C24.1545 16.4055 22.8955 15.2288 21.3424 15.2288C19.7893 15.2288 18.5303 16.4055 18.5303 17.8571C18.5303 19.3087 19.7893 20.4854 21.3424 20.4854Z" stroke="#A0A0A0" stroke-width="2" stroke-linecap="round" stroke-linejoin="round"/>
</svg>
